<?xml version="1.0" encoding="UTF-8" standalone="no"?>
<!-- Created with Inkscape (http://www.inkscape.org/) -->

<svg
   xmlns:dc="http://purl.org/dc/elements/1.1/"
   xmlns:cc="http://creativecommons.org/ns#"
   xmlns:rdf="http://www.w3.org/1999/02/22-rdf-syntax-ns#"
   xmlns:svg="http://www.w3.org/2000/svg"
   xmlns="http://www.w3.org/2000/svg"
   xmlns:sodipodi="http://sodipodi.sourceforge.net/DTD/sodipodi-0.dtd"
   xmlns:inkscape="http://www.inkscape.org/namespaces/inkscape"
   height="201mm"
   width="210mm"
   viewBox="0 0 744.09449 712.20473"
   id="svg3177"
   version="1.1"
   inkscape:version="0.91 r13725"
   sodipodi:docname="underconstruction.svg">
  <defs
     id="defs3183" />
  <sodipodi:namedview
     pagecolor="#ffffff"
     bordercolor="#666666"
     borderopacity="1"
     objecttolerance="10"
     gridtolerance="10"
     guidetolerance="10"
     inkscape:pageopacity="0"
     inkscape:pageshadow="2"
     inkscape:window-width="1541"
     inkscape:window-height="876"
     id="namedview3181"
     showgrid="false"
     inkscape:zoom="0.89702955"
     inkscape:cx="496.77777"
     inkscape:cy="415.16673"
     inkscape:window-x="59"
     inkscape:window-y="24"
     inkscape:window-maximized="1"
     inkscape:current-layer="svg3177" />
  <metadata
     id="metadata3179">
    <rdf:RDF>
      <cc:Work
         rdf:about="">
        <dc:format>image/svg+xml</dc:format>
        <dc:type
           rdf:resource="http://purl.org/dc/dcmitype/StillImage" />
        <dc:title></dc:title>
      </cc:Work>
    </rdf:RDF>
  </metadata>
  <g
     inkscape:groupmode="layer"
     id="layer1"
     inkscape:label="fond"
     transform="translate(0,-340.18189)" />
  <g
     id="g3408"
     transform="translate(-1.6555117e-6,-170.07874)">
    <path
       inkscape:connector-curvature="0"
       id="path3406"
       d="M 81.379704,566.31356 C 331.09277,819.371 363.42169,837.20764 363.42169,837.20764 L 428.07954,808.22309 671.10386,554.05086 676.67782,499.42613 402.43936,225.18767 346.69984,220.72851 71.34659,494.96697 Z"
       style="fill:#ff6600;fill-rule:evenodd;stroke:#000000;stroke-width:1px;stroke-linecap:butt;stroke-linejoin:miter;stroke-opacity:1" />
    <path
       id="path26"
       d="M 669.616,472.87333 425.35502,228.61234 c -15.11713,-14.32148 -33.41681,-21.48223 -53.30777,-21.48223 -19.89097,0 -38.19064,7.16075 -53.30778,21.48223 L 74.478487,472.87333 c -14.321477,15.11712 -21.482223,33.4168 -21.482223,53.30776 0,19.89095 7.160746,38.19064 21.482223,53.30778 L 318.73947,823.74982 c 15.11714,14.32156 33.41681,21.48227 53.30778,21.48227 19.89096,0 38.19064,-7.16071 53.30777,-21.48227 L 669.616,579.48887 c 28.64297,-29.43864 28.64297,-77.97257 0,-106.61554 z m -11.93458,74.78999 c -0.79565,1.59128 -1.59129,3.18257 -3.18256,4.77383 -4.77382,5.56947 -98.65916,100.25047 -245.05661,246.6479 l -3.18255,3.18248 -1.59128,1.59138 c -9.54767,9.54757 -21.48223,14.32143 -33.41681,14.32143 -13.52585,0 -24.66479,-4.77386 -33.41682,-14.32143 L 93.573818,559.59791 c -18.299679,-18.29969 -18.299679,-49.32959 0,-67.62926 L 268.61426,317.72383 338.63044,247.70766 c 3.97819,-3.97819 7.95638,-7.16073 14.32149,-9.54765 3.18254,-1.59128 5.56946,-2.38693 7.95638,-3.18256 4.77383,-0.79563 8.75202,-1.59128 13.52585,-1.59128 1.59127,0 3.18256,0 4.77384,0 l 0,0 0,0 0.79563,0 c 0.79564,0 2.38691,0.79565 3.97819,0.79565 l 1.59128,0.79563 0.79563,0 c 3.18257,0.79563 7.16074,2.38691 10.34331,3.97819 0.79563,0 0.79563,0.79563 1.59128,0.79563 0,0 0,0 0.79563,0.79566 0.79563,0.79562 1.59128,0.79562 1.59128,1.59127 l 0.79563,0.79564 0.79564,0.79563 0.79564,0.79565 c 1.59128,0.79563 2.38691,1.59127 3.9782,3.18254 l 4.77382,4.77384 4.77384,4.77382 230.73511,230.73513 2.38693,2.38691 c 3.97818,3.9782 7.16073,9.54766 9.54766,13.52586 6.3651,13.52584 6.3651,29.43862 -1.59128,43.7601 z"
       class="st1"
       inkscape:connector-curvature="0" />
    <g
       transform="matrix(6.560322,0,0,6.560322,3244.3261,-4213.1099)"
       id="g6">
      <path
         style="fill:none"
         inkscape:connector-curvature="0"
         id="path8"
         d="m -443.4,680.3 c 0.4,-0.2 0.9,-0.4 1.3,-0.5"
         class="st0" />
      <path
         style="fill:none"
         inkscape:connector-curvature="0"
         id="path10"
         d="m -398,718.6 c 0.1,0.2 0.2,0.4 0.3,0.6"
         class="st0" />
      <path
         style="fill:none"
         inkscape:connector-curvature="0"
         id="path12"
         d="m -398.4,718 c 0.1,0.2 0.3,0.3 0.4,0.5"
         class="st0" />
      <path
         style="fill:none"
         inkscape:connector-curvature="0"
         id="path14"
         d="m -399.1,717.2 c 0.2,0.2 0.4,0.4 0.5,0.6"
         class="st0" />
      <g
         id="g16">
        <polygon
           style="fill:none"
           id="polygon18"
           points="-449.1,709.5 -449.4,709.5 -450.1,713 -450.1,713 -447,709.8 "
           class="st0" />
        <polygon
           style="fill:none"
           id="polygon20"
           points="-444.5,719.6 -442.8,716.4 -446.5,718 "
           class="st0" />
        <path
           inkscape:connector-curvature="0"
           id="path22"
           d="m -435.3,710.9 c 1.8,0 3.3,-1.5 3.3,-3.3 0,-1.8 -1.5,-3.3 -3.3,-3.3 -1.8,0 -3.3,1.5 -3.3,3.3 0,1.8 1.5,3.3 3.3,3.3 z" />
        <path
           inkscape:connector-curvature="0"
           id="path24"
           d="m -420.4,730.9 -4.7,-3.6 -1.9,-1.4 c 0,0 -3.7,-2.4 -6,-0.4 -0.7,0.6 -1.3,1.2 -1.9,1.9 l -6.9,-5.6 4.6,-9 -4.7,-6.8 -9.9,0 -1.3,6.6 -1.9,-1.6 c -0.4,-0.3 -1,-0.3 -1.4,0.1 -0.3,0.4 -0.3,1 0.1,1.3 l 3.7,3 -2.3,2.5 0.2,8.8 -2.3,8.6 c -0.3,1 0.3,2.1 1.3,2.3 0.2,0 0.3,0.1 0.5,0.1 0.8,0 1.6,-0.6 1.9,-1.4 l 2.5,-9.1 0.4,-6.9 4.9,5.8 -4.6,8.6 c -0.5,0.9 -0.2,2.1 0.8,2.6 0.3,0.2 0.6,0.2 0.9,0.2 0.7,0 1.3,-0.4 1.7,-1 l 5.8,-10.6 -2.3,-2.7 7.1,5.7 c -1.6,2.2 -2.9,4.6 -3.5,6.1 -0.4,1.1 -0.7,1.8 -0.7,2 l 0,0.1 13.9,0 6.3,-6 -0.3,-0.2 z m -29.7,-17.9 0,0 0.7,-3.5 0.3,0 2.1,0.3 -3.1,3.2 z m 5.6,6.6 -2,-1.6 3.7,-1.6 -1.7,3.2 z" />
      </g>
    </g>
  </g>
</svg>
