<?xml version="1.0" encoding="UTF-8" standalone="no"?>
<!-- Generator: Adobe Illustrator 16.0.0, SVG Export Plug-In . SVG Version: 6.00 Build 0)  -->

<svg
   xmlns:dc="http://purl.org/dc/elements/1.1/"
   xmlns:cc="http://creativecommons.org/ns#"
   xmlns:rdf="http://www.w3.org/1999/02/22-rdf-syntax-ns#"
   xmlns:svg="http://www.w3.org/2000/svg"
   xmlns="http://www.w3.org/2000/svg"
   xmlns:sodipodi="http://sodipodi.sourceforge.net/DTD/sodipodi-0.dtd"
   xmlns:inkscape="http://www.inkscape.org/namespaces/inkscape"
   version="1.1"
   id="logo"
   x="0px"
   y="0px"
   width="109.61366"
   height="168.71758"
   viewBox="0 0 109.61366 168.71758"
   xml:space="preserve"
   inkscape:version="0.91 r13725"
   sodipodi:docname="logo.svg"><metadata
     id="metadata31"><rdf:RDF><cc:Work
         rdf:about=""><dc:format>image/svg+xml</dc:format><dc:type
           rdf:resource="http://purl.org/dc/dcmitype/StillImage" /><dc:title></dc:title></cc:Work></rdf:RDF></metadata><defs
     id="defs29" /><sodipodi:namedview
     pagecolor="#ffffff"
     bordercolor="#666666"
     borderopacity="1"
     objecttolerance="10"
     gridtolerance="10"
     guidetolerance="10"
     inkscape:pageopacity="0"
     inkscape:pageshadow="2"
     inkscape:window-width="1535"
     inkscape:window-height="876"
     id="namedview27"
     showgrid="false"
     fit-margin-top="0"
     fit-margin-left="0"
     fit-margin-right="0"
     fit-margin-bottom="0"
     inkscape:zoom="0.65373961"
     inkscape:cx="-36.349085"
     inkscape:cy="59.903015"
     inkscape:window-x="65"
     inkscape:window-y="24"
     inkscape:window-maximized="1"
     inkscape:current-layer="logo" /><polygon
     style="fill:#f2f2f2"
     points="112.091,117.924 112.091,248.984 74.272,223.772 74.272,143.136 "
     id="polygon3"
     transform="matrix(0.52698878,0,0,0.52698878,-39.140511,-12.319938)" /><polygon
     style="fill:#f2f2f2"
     points="168.818,23.378 168.818,286.803 131,261.591 131,48.591 "
     id="polygon5"
     transform="matrix(0.52698878,0,0,0.52698878,-39.140511,-12.319938)" /><line
     style="fill:#f2f2f2"
     x1="49.82468"
     y1="138.82204"
     x2="29.895023"
     y2="125.53557"
     id="line7" /><line
     style="fill:#f2f2f2"
     x1="19.930195"
     y1="118.89183"
     x2="3.505668e-06"
     y2="105.60539"
     id="line9" /><line
     style="fill:#f2f2f2"
     x1="49.82468"
     y1="0"
     x2="29.895023"
     y2="13.286972"
     id="line11" /><line
     style="fill:#f2f2f2"
     x1="19.930195"
     y1="49.824692"
     x2="3.505668e-06"
     y2="63.11113"
     id="line13" /><polygon
     style="fill:#f2f2f2"
     points="244.454,248.986 244.454,117.926 282.272,143.138 282.272,223.774 "
     id="polygon15"
     transform="matrix(0.52698878,0,0,0.52698878,-39.140511,-12.319938)" /><polygon
     style="fill:#f2f2f2"
     points="187.727,343.532 187.727,80.108 225.545,105.32 225.545,318.32 "
     id="polygon17"
     transform="matrix(0.52698878,0,0,0.52698878,-39.140511,-12.319938)" /><line
     style="fill:#f2f2f2"
     x1="59.789509"
     y1="29.896072"
     x2="79.719162"
     y2="43.18251"
     id="line19" /><line
     style="fill:#f2f2f2"
     x1="89.684006"
     y1="49.825745"
     x2="109.61366"
     y2="63.112183"
     id="line21" /><line
     style="fill:#f2f2f2"
     x1="59.789509"
     y1="168.71758"
     x2="79.719162"
     y2="155.43114"
     id="line23" /><line
     style="fill:#f2f2f2"
     x1="89.684006"
     y1="118.89287"
     x2="109.61366"
     y2="105.60646"
     id="line25" /></svg>