<?xml version="1.0" encoding="iso-8859-1"?>
<!-- Generator: Adobe Illustrator 16.0.0, SVG Export Plug-In . SVG Version: 6.00 Build 0)  -->
<!DOCTYPE svg PUBLIC "-//W3C//DTD SVG 1.1//EN" "http://www.w3.org/Graphics/SVG/1.1/DTD/svg11.dtd">
<svg version="1.1" id="logo" xmlns="http://www.w3.org/2000/svg" xmlns:xlink="http://www.w3.org/1999/xlink" x="0px" y="0px"
	 width="359px" height="361px" viewBox="0 0 359 361" style="enable-background:new 0 0 359 361;" xml:space="preserve">
<polygon style="fill:#0D0D0D;" points="112.091,117.924 112.091,248.984 74.272,223.772 74.272,143.136 "/>
<polygon style="fill:#0D0D0D;" points="168.818,23.378 168.818,286.803 131,261.591 131,48.591 "/>
<line style="fill:#0D0D0D;" x1="168.818" y1="286.803" x2="131" y2="261.591"/>
<line style="fill:#0D0D0D;" x1="112.091" y1="248.984" x2="74.272" y2="223.772"/>
<line style="fill:#0D0D0D;" x1="168.818" y1="23.378" x2="131" y2="48.591"/>
<line style="fill:#0D0D0D;" x1="112.091" y1="117.924" x2="74.272" y2="143.136"/>
<polygon style="fill:#0D0D0D;" points="244.454,248.986 244.454,117.926 282.272,143.138 282.272,223.774 "/>
<polygon style="fill:#0D0D0D;" points="187.727,343.532 187.727,80.108 225.545,105.32 225.545,318.32 "/>
<line style="fill:#0D0D0D;" x1="187.727" y1="80.108" x2="225.545" y2="105.32"/>
<line style="fill:#0D0D0D;" x1="244.454" y1="117.926" x2="282.272" y2="143.138"/>
<line style="fill:#0D0D0D;" x1="187.727" y1="343.532" x2="225.545" y2="318.32"/>
<line style="fill:#0D0D0D;" x1="244.454" y1="248.986" x2="282.272" y2="223.774"/>
</svg>
